<?xml version="1.0" encoding="UTF-8"?>
<svg version="1.1" xmlns="http://www.w3.org/2000/svg" width="128" height="128">
<path d="M0 0 C42.24 0 84.48 0 128 0 C128 42.24 128 84.48 128 128 C85.76 128 43.52 128 0 128 C0 85.76 0 43.52 0 0 Z " fill="#6A3926" transform="translate(0,0)"/>
<path d="M0 0 C42.24 0 84.48 0 128 0 C128 4.95 128 9.9 128 15 C125.36 15 122.72 15 120 15 C120 17.97 120 20.94 120 24 C117.03 24 114.06 24 111 24 C111 26.64 111 29.28 111 32 C113.97 32 116.94 32 120 32 C120 39.92 120 47.84 120 56 C117.03 56 114.06 56 111 56 C111 58.64 111 61.28 111 64 C113.97 64 116.94 64 120 64 C120 66.64 120 69.28 120 72 C114.72 72 109.44 72 104 72 C104 69.36 104 66.72 104 64 C101.36 64 98.72 64 96 64 C96 66.64 96 69.28 96 72 C93.36 72 90.72 72 88 72 C88 66.72 88 61.44 88 56 C85.03 56 82.06 56 79 56 C79 63.59 79 71.18 79 79 C81.97 79 84.94 79 88 79 C88 81.97 88 84.94 88 88 C90.64 88 93.28 88 96 88 C96 90.64 96 93.28 96 96 C90.39 96 84.78 96 79 96 C79 93.36 79 90.72 79 88 C76.69 88 74.38 88 72 88 C72 85.03 72 82.06 72 79 C69.36 79 66.72 79 64 79 C64 76.69 64 74.38 64 72 C61.36 72 58.72 72 56 72 C56 69.36 56 66.72 56 64 C61.28 64 66.56 64 72 64 C72 58.39 72 52.78 72 47 C66.72 47 61.44 47 56 47 C56 49.97 56 52.94 56 56 C53.03 56 50.06 56 47 56 C47 48.08 47 40.16 47 32 C44.69 32 42.38 32 40 32 C40 29.36 40 26.72 40 24 C37.36 24 34.72 24 32 24 C32 21.03 32 18.06 32 15 C26.39 15 20.78 15 15 15 C15 17.97 15 20.94 15 24 C12.69 24 10.38 24 8 24 C8 21.03 8 18.06 8 15 C5.36 15 2.72 15 0 15 C0 10.05 0 5.1 0 0 Z " fill="#713D27" transform="translate(0,0)"/>
<path d="M0 0 C42.24 0 84.48 0 128 0 C128 4.95 128 9.9 128 15 C125.36 15 122.72 15 120 15 C120 17.97 120 20.94 120 24 C117.03 24 114.06 24 111 24 C111 21.03 111 18.06 111 15 C108.69 15 106.38 15 104 15 C104 17.97 104 20.94 104 24 C101.36 24 98.72 24 96 24 C96 26.64 96 29.28 96 32 C90.39 32 84.78 32 79 32 C79 29.36 79 26.72 79 24 C76.69 24 74.38 24 72 24 C72 21.03 72 18.06 72 15 C66.72 15 61.44 15 56 15 C56 17.97 56 20.94 56 24 C53.03 24 50.06 24 47 24 C47 26.64 47 29.28 47 32 C44.69 32 42.38 32 40 32 C40 29.36 40 26.72 40 24 C37.36 24 34.72 24 32 24 C32 21.03 32 18.06 32 15 C26.39 15 20.78 15 15 15 C15 17.97 15 20.94 15 24 C12.69 24 10.38 24 8 24 C8 21.03 8 18.06 8 15 C5.36 15 2.72 15 0 15 C0 10.05 0 5.1 0 0 Z " fill="#269B47" transform="translate(0,0)"/>
<path d="M0 0 C5.28 0 10.56 0 16 0 C16 5.28 16 10.56 16 16 C18.31 16 20.62 16 23 16 C23 18.64 23 21.28 23 24 C25.97 24 28.94 24 32 24 C32 26.64 32 29.28 32 32 C29.03 32 26.06 32 23 32 C23 37.28 23 42.56 23 48 C15.41 48 7.82 48 0 48 C0 50.64 0 53.28 0 56 C-7.92 56 -15.84 56 -24 56 C-24 53.36 -24 50.72 -24 48 C-19.05 48 -14.1 48 -9 48 C-9 42.72 -9 37.44 -9 32 C-11.31 32 -13.62 32 -16 32 C-16 29.36 -16 26.72 -16 24 C-13.69 24 -11.38 24 -9 24 C-9 18.39 -9 12.78 -9 7 C-6.03 7 -3.06 7 0 7 C0 4.69 0 2.38 0 0 Z " fill="#633623" transform="translate(24,72)"/>
<path d="M0 0 C5.61 0 11.22 0 17 0 C17 2.97 17 5.94 17 9 C19.64 9 22.28 9 25 9 C25 11.64 25 14.28 25 17 C27.31 17 29.62 17 32 17 C32 24.92 32 32.84 32 41 C34.97 41 37.94 41 41 41 C41 38.03 41 35.06 41 32 C46.28 32 51.56 32 57 32 C57 37.61 57 43.22 57 49 C46.44 49 35.88 49 25 49 C25 46.36 25 43.72 25 41 C16.75 41 8.5 41 0 41 C0 38.03 0 35.06 0 32 C2.97 32 5.94 32 9 32 C9 24.41 9 16.82 9 9 C6.03 9 3.06 9 0 9 C0 6.03 0 3.06 0 0 Z " fill="#613523" transform="translate(15,15)"/>
<path d="M0 0 C2.97 0 5.94 0 9 0 C9 2.31 9 4.62 9 7 C14.28 7 19.56 7 25 7 C25 9.97 25 12.94 25 16 C27.31 16 29.62 16 32 16 C32 13.03 32 10.06 32 7 C37.61 7 43.22 7 49 7 C49 12.61 49 18.22 49 24 C25.24 24 1.48 24 -23 24 C-23 21.36 -23 18.72 -23 16 C-15.41 16 -7.82 16 0 16 C0 10.72 0 5.44 0 0 Z " fill="#713D28" transform="translate(47,104)"/>
<path d="M0 0 C13.2 0 26.4 0 40 0 C40 4.95 40 9.9 40 15 C42.31 15 44.62 15 47 15 C47 20.61 47 26.22 47 32 C44.69 32 42.38 32 40 32 C40 29.36 40 26.72 40 24 C37.36 24 34.72 24 32 24 C32 21.03 32 18.06 32 15 C26.39 15 20.78 15 15 15 C15 17.97 15 20.94 15 24 C12.69 24 10.38 24 8 24 C8 21.03 8 18.06 8 15 C5.36 15 2.72 15 0 15 C0 10.05 0 5.1 0 0 Z " fill="#22AB4B" transform="translate(0,0)"/>
<path d="M0 0 C7.59 0 15.18 0 23 0 C23 4.95 23 9.9 23 15 C25.97 15 28.94 15 32 15 C32 17.97 32 20.94 32 24 C34.64 24 37.28 24 40 24 C40 26.64 40 29.28 40 32 C34.39 32 28.78 32 23 32 C23 29.36 23 26.72 23 24 C20.69 24 18.38 24 16 24 C16 21.03 16 18.06 16 15 C13.36 15 10.72 15 8 15 C8 12.69 8 10.38 8 8 C5.36 8 2.72 8 0 8 C0 5.36 0 2.72 0 0 Z " fill="#6F4635" transform="translate(56,64)"/>
<path d="M0 0 C2.64 0 5.28 0 8 0 C8 10.56 8 21.12 8 32 C5.36 32 2.72 32 0 32 C0 29.36 0 26.72 0 24 C-2.97 24 -5.94 24 -9 24 C-9 21.36 -9 18.72 -9 16 C-13.95 16 -18.9 16 -24 16 C-24 13.03 -24 10.06 -24 7 C-16.08 7 -8.16 7 0 7 C0 4.69 0 2.38 0 0 Z " fill="#7A432C" transform="translate(120,72)"/>
<path d="M0 0 C5.61 0 11.22 0 17 0 C17 5.61 17 11.22 17 17 C6.44 17 -4.12 17 -15 17 C-15 14.36 -15 11.72 -15 9 C-10.05 9 -5.1 9 0 9 C0 6.03 0 3.06 0 0 Z " fill="#7B432C" transform="translate(79,111)"/>
<path d="M0 0 C7.59 0 15.18 0 23 0 C23 2.64 23 5.28 23 8 C20.69 8 18.38 8 16 8 C16 13.28 16 18.56 16 24 C10.72 24 5.44 24 0 24 C0 21.03 0 18.06 0 15 C2.64 15 5.28 15 8 15 C8 12.69 8 10.38 8 8 C5.36 8 2.72 8 0 8 C0 5.36 0 2.72 0 0 Z " fill="#23A84A" transform="translate(88,0)"/>
<path d="M0 0 C2.97 0 5.94 0 9 0 C9 2.97 9 5.94 9 9 C14.28 9 19.56 9 25 9 C25 11.64 25 14.28 25 17 C16.75 17 8.5 17 0 17 C0 11.39 0 5.78 0 0 Z " fill="#80492F" transform="translate(47,79)"/>
<path d="M0 0 C5.28 0 10.56 0 16 0 C16 8.25 16 16.5 16 25 C13.36 25 10.72 25 8 25 C8 19.72 8 14.44 8 9 C5.36 9 2.72 9 0 9 C0 6.03 0 3.06 0 0 Z " fill="#6F3B27" transform="translate(56,15)"/>
<path d="M0 0 C4.95 0 9.9 0 15 0 C15 2.64 15 5.28 15 8 C17.97 8 20.94 8 24 8 C24 10.64 24 13.28 24 16 C18.72 16 13.44 16 8 16 C8 13.36 8 10.72 8 8 C5.36 8 2.72 8 0 8 C0 5.36 0 2.72 0 0 Z " fill="#764837" transform="translate(96,56)"/>
<path d="M0 0 C2.64 0 5.28 0 8 0 C8 2.64 8 5.28 8 8 C13.28 8 18.56 8 24 8 C24 10.31 24 12.62 24 15 C16.08 15 8.16 15 0 15 C0 10.05 0 5.1 0 0 Z " fill="#623622" transform="translate(96,64)"/>
<path d="M0 0 C2.97 0 5.94 0 9 0 C9 2.97 9 5.94 9 9 C11.64 9 14.28 9 17 9 C17 11.64 17 14.28 17 17 C11.39 17 5.78 17 0 17 C0 11.39 0 5.78 0 0 Z " fill="#7D5646" transform="translate(79,79)"/>
<path d="M0 0 C2.64 0 5.28 0 8 0 C8 5.61 8 11.22 8 17 C2.39 17 -3.22 17 -9 17 C-9 14.36 -9 11.72 -9 9 C-6.03 9 -3.06 9 0 9 C0 6.03 0 3.06 0 0 Z " fill="#5F3422" transform="translate(120,15)"/>
<path d="M0 0 C5.61 0 11.22 0 17 0 C17 5.28 17 10.56 17 16 C14.36 16 11.72 16 9 16 C9 13.36 9 10.72 9 8 C6.03 8 3.06 8 0 8 C0 5.36 0 2.72 0 0 Z " fill="#6C4534" transform="translate(111,88)"/>
<path d="M0 0 C2.31 0 4.62 0 7 0 C7 5.28 7 10.56 7 16 C2.05 16 -2.9 16 -8 16 C-8 13.03 -8 10.06 -8 7 C-5.36 7 -2.72 7 0 7 C0 4.69 0 2.38 0 0 Z " fill="#7C442C" transform="translate(8,104)"/>
<path d="M0 0 C2.31 0 4.62 0 7 0 C7 2.64 7 5.28 7 8 C9.97 8 12.94 8 16 8 C16 10.64 16 13.28 16 16 C10.72 16 5.44 16 0 16 C0 10.72 0 5.44 0 0 Z " fill="#784229" transform="translate(72,24)"/>
<path d="M0 0 C4.95 0 9.9 0 15 0 C15 5.28 15 10.56 15 16 C12.69 16 10.38 16 8 16 C8 13.36 8 10.72 8 8 C5.36 8 2.72 8 0 8 C0 5.36 0 2.72 0 0 Z " fill="#6C3A27" transform="translate(96,88)"/>
<path d="M0 0 C2.97 0 5.94 0 9 0 C9 5.28 9 10.56 9 16 C6.03 16 3.06 16 0 16 C0 10.72 0 5.44 0 0 Z " fill="#653724" transform="translate(79,56)"/>
<path d="M0 0 C2.97 0 5.94 0 9 0 C9 5.28 9 10.56 9 16 C6.03 16 3.06 16 0 16 C0 10.72 0 5.44 0 0 Z " fill="#754A37" transform="translate(47,24)"/>
<path d="M0 0 C2.97 0 5.94 0 9 0 C9 5.28 9 10.56 9 16 C6.03 16 3.06 16 0 16 C0 10.72 0 5.44 0 0 Z " fill="#6B4534" transform="translate(15,24)"/>
<path d="M0 0 C5.28 0 10.56 0 16 0 C16 2.64 16 5.28 16 8 C10.72 8 5.44 8 0 8 C0 5.36 0 2.72 0 0 Z " fill="#81472C" transform="translate(24,120)"/>
<path d="M0 0 C5.28 0 10.56 0 16 0 C16 2.64 16 5.28 16 8 C10.72 8 5.44 8 0 8 C0 5.36 0 2.72 0 0 Z " fill="#6D3A27" transform="translate(56,96)"/>
<path d="M0 0 C5.28 0 10.56 0 16 0 C16 2.64 16 5.28 16 8 C10.72 8 5.44 8 0 8 C0 5.36 0 2.72 0 0 Z " fill="#795446" transform="translate(56,64)"/>
<path d="M0 0 C2.64 0 5.28 0 8 0 C8 5.28 8 10.56 8 16 C5.36 16 2.72 16 0 16 C0 10.72 0 5.44 0 0 Z " fill="#633624" transform="translate(0,56)"/>
<path d="M0 0 C2.64 0 5.28 0 8 0 C8 5.28 8 10.56 8 16 C5.36 16 2.72 16 0 16 C0 10.72 0 5.44 0 0 Z " fill="#623724" transform="translate(64,24)"/>
<path d="M0 0 C4.95 0 9.9 0 15 0 C15 2.64 15 5.28 15 8 C10.05 8 5.1 8 0 8 C0 5.36 0 2.72 0 0 Z " fill="#623623" transform="translate(0,120)"/>
<path d="M0 0 C2.31 0 4.62 0 7 0 C7 5.28 7 10.56 7 16 C4.69 16 2.38 16 0 16 C0 10.72 0 5.44 0 0 Z " fill="#6B4533" transform="translate(40,72)"/>
<path d="M0 0 C2.97 0 5.94 0 9 0 C9 2.97 9 5.94 9 9 C6.03 9 3.06 9 0 9 C0 6.03 0 3.06 0 0 Z " fill="#6A4534" transform="translate(79,111)"/>
<path d="M0 0 C2.97 0 5.94 0 9 0 C9 2.97 9 5.94 9 9 C6.03 9 3.06 9 0 9 C0 6.03 0 3.06 0 0 Z " fill="#8C614D" transform="translate(47,79)"/>
<path d="M0 0 C2.97 0 5.94 0 9 0 C9 2.97 9 5.94 9 9 C6.03 9 3.06 9 0 9 C0 6.03 0 3.06 0 0 Z " fill="#7A422A" transform="translate(111,47)"/>
<path d="M0 0 C2.97 0 5.94 0 9 0 C9 2.97 9 5.94 9 9 C6.03 9 3.06 9 0 9 C0 6.03 0 3.06 0 0 Z " fill="#725143" transform="translate(47,47)"/>
<path d="M0 0 C2.64 0 5.28 0 8 0 C8 2.97 8 5.94 8 9 C5.36 9 2.72 9 0 9 C0 6.03 0 3.06 0 0 Z " fill="#895F4A" transform="translate(88,111)"/>
<path d="M0 0 C2.97 0 5.94 0 9 0 C9 2.64 9 5.28 9 8 C6.03 8 3.06 8 0 8 C0 5.36 0 2.72 0 0 Z " fill="#764A37" transform="translate(47,88)"/>
<path d="M0 0 C2.64 0 5.28 0 8 0 C8 2.97 8 5.94 8 9 C5.36 9 2.72 9 0 9 C0 6.03 0 3.06 0 0 Z " fill="#9A593D" transform="translate(96,79)"/>
<path d="M0 0 C2.64 0 5.28 0 8 0 C8 2.97 8 5.94 8 9 C5.36 9 2.72 9 0 9 C0 6.03 0 3.06 0 0 Z " fill="#6B4534" transform="translate(88,79)"/>
<path d="M0 0 C2.64 0 5.28 0 8 0 C8 2.97 8 5.94 8 9 C5.36 9 2.72 9 0 9 C0 6.03 0 3.06 0 0 Z " fill="#633623" transform="translate(64,79)"/>
<path d="M0 0 C2.97 0 5.94 0 9 0 C9 2.64 9 5.28 9 8 C6.03 8 3.06 8 0 8 C0 5.36 0 2.72 0 0 Z " fill="#754836" transform="translate(111,64)"/>
<path d="M0 0 C2.97 0 5.94 0 9 0 C9 2.64 9 5.28 9 8 C6.03 8 3.06 8 0 8 C0 5.36 0 2.72 0 0 Z " fill="#623725" transform="translate(111,56)"/>
<path d="M0 0 C2.64 0 5.28 0 8 0 C8 2.97 8 5.94 8 9 C5.36 9 2.72 9 0 9 C0 6.03 0 3.06 0 0 Z " fill="#7B432D" transform="translate(0,47)"/>
<path d="M0 0 C2.97 0 5.94 0 9 0 C9 2.64 9 5.28 9 8 C6.03 8 3.06 8 0 8 C0 5.36 0 2.72 0 0 Z " fill="#7A452C" transform="translate(111,32)"/>
<path d="M0 0 C2.97 0 5.94 0 9 0 C9 2.64 9 5.28 9 8 C6.03 8 3.06 8 0 8 C0 5.36 0 2.72 0 0 Z " fill="#7D5546" transform="translate(79,32)"/>
<path d="M0 0 C2.97 0 5.94 0 9 0 C9 2.64 9 5.28 9 8 C6.03 8 3.06 8 0 8 C0 5.36 0 2.72 0 0 Z " fill="#7D5647" transform="translate(47,24)"/>
<path d="M0 0 C2.97 0 5.94 0 9 0 C9 2.64 9 5.28 9 8 C6.03 8 3.06 8 0 8 C0 5.36 0 2.72 0 0 Z " fill="#7C5747" transform="translate(15,24)"/>
<path d="M0 0 C2.64 0 5.28 0 8 0 C8 2.97 8 5.94 8 9 C5.36 9 2.72 9 0 9 C0 6.03 0 3.06 0 0 Z " fill="#674033" transform="translate(0,15)"/>
<path d="M0 0 C2.64 0 5.28 0 8 0 C8 2.64 8 5.28 8 8 C5.36 8 2.72 8 0 8 C0 5.36 0 2.72 0 0 Z " fill="#80462F" transform="translate(120,120)"/>
<path d="M0 0 C2.64 0 5.28 0 8 0 C8 2.64 8 5.28 8 8 C5.36 8 2.72 8 0 8 C0 5.36 0 2.72 0 0 Z " fill="#915337" transform="translate(64,120)"/>
<path d="M0 0 C2.64 0 5.28 0 8 0 C8 2.64 8 5.28 8 8 C5.36 8 2.72 8 0 8 C0 5.36 0 2.72 0 0 Z " fill="#874D31" transform="translate(24,120)"/>
<path d="M0 0 C2.64 0 5.28 0 8 0 C8 2.64 8 5.28 8 8 C5.36 8 2.72 8 0 8 C0 5.36 0 2.72 0 0 Z " fill="#835947" transform="translate(120,96)"/>
<path d="M0 0 C2.64 0 5.28 0 8 0 C8 2.64 8 5.28 8 8 C5.36 8 2.72 8 0 8 C0 5.36 0 2.72 0 0 Z " fill="#6A4432" transform="translate(88,96)"/>
<path d="M0 0 C2.64 0 5.28 0 8 0 C8 2.64 8 5.28 8 8 C5.36 8 2.72 8 0 8 C0 5.36 0 2.72 0 0 Z " fill="#6C4533" transform="translate(56,96)"/>
<path d="M0 0 C2.64 0 5.28 0 8 0 C8 2.64 8 5.28 8 8 C5.36 8 2.72 8 0 8 C0 5.36 0 2.72 0 0 Z " fill="#6F3B27" transform="translate(120,88)"/>
<path d="M0 0 C2.64 0 5.28 0 8 0 C8 2.64 8 5.28 8 8 C5.36 8 2.72 8 0 8 C0 5.36 0 2.72 0 0 Z " fill="#8C5E4B" transform="translate(88,88)"/>
<path d="M0 0 C2.64 0 5.28 0 8 0 C8 2.64 8 5.28 8 8 C5.36 8 2.72 8 0 8 C0 5.36 0 2.72 0 0 Z " fill="#835949" transform="translate(56,88)"/>
<path d="M0 0 C2.64 0 5.28 0 8 0 C8 2.64 8 5.28 8 8 C5.36 8 2.72 8 0 8 C0 5.36 0 2.72 0 0 Z " fill="#764028" transform="translate(32,88)"/>
<path d="M0 0 C2.64 0 5.28 0 8 0 C8 2.64 8 5.28 8 8 C5.36 8 2.72 8 0 8 C0 5.36 0 2.72 0 0 Z " fill="#76422A" transform="translate(88,64)"/>
<path d="M0 0 C2.64 0 5.28 0 8 0 C8 2.64 8 5.28 8 8 C5.36 8 2.72 8 0 8 C0 5.36 0 2.72 0 0 Z " fill="#7F4D3B" transform="translate(56,64)"/>
<path d="M0 0 C2.64 0 5.28 0 8 0 C8 2.64 8 5.28 8 8 C5.36 8 2.72 8 0 8 C0 5.36 0 2.72 0 0 Z " fill="#7A422B" transform="translate(120,56)"/>
<path d="M0 0 C2.64 0 5.28 0 8 0 C8 2.64 8 5.28 8 8 C5.36 8 2.72 8 0 8 C0 5.36 0 2.72 0 0 Z " fill="#6E3D27" transform="translate(120,32)"/>
<path d="M0 0 C2.64 0 5.28 0 8 0 C8 2.64 8 5.28 8 8 C5.36 8 2.72 8 0 8 C0 5.36 0 2.72 0 0 Z " fill="#6D4433" transform="translate(88,32)"/>
<path d="M0 0 C2.64 0 5.28 0 8 0 C8 2.64 8 5.28 8 8 C5.36 8 2.72 8 0 8 C0 5.36 0 2.72 0 0 Z " fill="#703C26" transform="translate(24,32)"/>
<path d="M0 0 C2.64 0 5.28 0 8 0 C8 2.64 8 5.28 8 8 C5.36 8 2.72 8 0 8 C0 5.36 0 2.72 0 0 Z " fill="#633625" transform="translate(96,24)"/>
<path d="M0 0 C2.64 0 5.28 0 8 0 C8 2.64 8 5.28 8 8 C5.36 8 2.72 8 0 8 C0 5.36 0 2.72 0 0 Z " fill="#22A94A" transform="translate(120,0)"/>
<path d="M0 0 C2.31 0 4.62 0 7 0 C7 2.97 7 5.94 7 9 C4.69 9 2.38 9 0 9 C0 6.03 0 3.06 0 0 Z " fill="#7D452C" transform="translate(104,79)"/>
<path d="M0 0 C2.31 0 4.62 0 7 0 C7 2.97 7 5.94 7 9 C4.69 9 2.38 9 0 9 C0 6.03 0 3.06 0 0 Z " fill="#6C4433" transform="translate(72,79)"/>
<path d="M0 0 C2.97 0 5.94 0 9 0 C9 2.31 9 4.62 9 7 C6.03 7 3.06 7 0 7 C0 4.69 0 2.38 0 0 Z " fill="#7B422B" transform="translate(15,72)"/>
<path d="M0 0 C2.31 0 4.62 0 7 0 C7 2.97 7 5.94 7 9 C4.69 9 2.38 9 0 9 C0 6.03 0 3.06 0 0 Z " fill="#593022" transform="translate(104,47)"/>
<path d="M0 0 C2.31 0 4.62 0 7 0 C7 2.97 7 5.94 7 9 C4.69 9 2.38 9 0 9 C0 6.03 0 3.06 0 0 Z " fill="#674033" transform="translate(40,47)"/>
<path d="M0 0 C2.97 0 5.94 0 9 0 C9 2.31 9 4.62 9 7 C6.03 7 3.06 7 0 7 C0 4.69 0 2.38 0 0 Z " fill="#7B402D" transform="translate(47,40)"/>
<path d="M0 0 C2.97 0 5.94 0 9 0 C9 2.31 9 4.62 9 7 C6.03 7 3.06 7 0 7 C0 4.69 0 2.38 0 0 Z " fill="#77432B" transform="translate(15,40)"/>
<path d="M0 0 C2.31 0 4.62 0 7 0 C7 2.64 7 5.28 7 8 C4.69 8 2.38 8 0 8 C0 5.36 0 2.72 0 0 Z " fill="#81482C" transform="translate(72,120)"/>
<path d="M0 0 C2.64 0 5.28 0 8 0 C8 2.31 8 4.62 8 7 C5.36 7 2.72 7 0 7 C0 4.69 0 2.38 0 0 Z " fill="#7C442C" transform="translate(120,104)"/>
<path d="M0 0 C2.31 0 4.62 0 7 0 C7 2.64 7 5.28 7 8 C4.69 8 2.38 8 0 8 C0 5.36 0 2.72 0 0 Z " fill="#774329" transform="translate(104,96)"/>
<path d="M0 0 C2.31 0 4.62 0 7 0 C7 2.64 7 5.28 7 8 C4.69 8 2.38 8 0 8 C0 5.36 0 2.72 0 0 Z " fill="#6D3A26" transform="translate(72,88)"/>
<path d="M0 0 C2.31 0 4.62 0 7 0 C7 2.64 7 5.28 7 8 C4.69 8 2.38 8 0 8 C0 5.36 0 2.72 0 0 Z " fill="#794329" transform="translate(8,88)"/>
<path d="M0 0 C2.64 0 5.28 0 8 0 C8 2.31 8 4.62 8 7 C5.36 7 2.72 7 0 7 C0 4.69 0 2.38 0 0 Z " fill="#774B36" transform="translate(120,72)"/>
<path d="M0 0 C2.64 0 5.28 0 8 0 C8 2.31 8 4.62 8 7 C5.36 7 2.72 7 0 7 C0 4.69 0 2.38 0 0 Z " fill="#8D4F33" transform="translate(64,72)"/>
<path d="M0 0 C2.64 0 5.28 0 8 0 C8 2.31 8 4.62 8 7 C5.36 7 2.72 7 0 7 C0 4.69 0 2.38 0 0 Z " fill="#7B432A" transform="translate(0,72)"/>
<path d="M0 0 C2.31 0 4.62 0 7 0 C7 2.64 7 5.28 7 8 C4.69 8 2.38 8 0 8 C0 5.36 0 2.72 0 0 Z " fill="#8B5F4B" transform="translate(104,64)"/>
<path d="M0 0 C2.31 0 4.62 0 7 0 C7 2.64 7 5.28 7 8 C4.69 8 2.38 8 0 8 C0 5.36 0 2.72 0 0 Z " fill="#633724" transform="translate(40,56)"/>
<path d="M0 0 C2.31 0 4.62 0 7 0 C7 2.64 7 5.28 7 8 C4.69 8 2.38 8 0 8 C0 5.36 0 2.72 0 0 Z " fill="#633722" transform="translate(8,32)"/>
<path d="M0 0 C2.31 0 4.62 0 7 0 C7 2.64 7 5.28 7 8 C4.69 8 2.38 8 0 8 C0 5.36 0 2.72 0 0 Z " fill="#7D4E3B" transform="translate(72,24)"/>
<path d="M0 0 C2.31 0 4.62 0 7 0 C7 2.64 7 5.28 7 8 C4.69 8 2.38 8 0 8 C0 5.36 0 2.72 0 0 Z " fill="#269847" transform="translate(40,24)"/>
<path d="M0 0 C2.31 0 4.62 0 7 0 C7 2.64 7 5.28 7 8 C4.69 8 2.38 8 0 8 C0 5.36 0 2.72 0 0 Z " fill="#6D4534" transform="translate(8,24)"/>
<path d="M0 0 C2.31 0 4.62 0 7 0 C7 2.31 7 4.62 7 7 C4.69 7 2.38 7 0 7 C0 4.69 0 2.38 0 0 Z " fill="#81462E" transform="translate(72,72)"/>
</svg>
